<svg width="750" height="500" viewBox="0 0 750 500" fill="none" xmlns="http://www.w3.org/2000/svg">
<g clip-path="url(#clip0_133_203)">
<path d="M112.8 399.43C111.99 399.23 111.19 399.02 110.38 398.8" stroke="#A9C6EA" stroke-miterlimit="10"/>
<path d="M107.02 397.82C91.97 393.11 77.4 384.48 67.32 372.51C31.83 330.35 73.42 276.31 114.8 259.29C134.98 250.99 153.16 241.08 159.09 218.07C164.76 196.06 149.23 173.06 145.22 152.05C137.15 109.77 175.17 77.06 215.28 77.06C252.25 77.06 268.9 91.15 305.59 115.73C333.32 134.31 385.4 145.2 425.41 141.28C473.06 136.6 491.02 115.73 529 98.74C555.14 87.05 591.57 84.55 616.02 101.88C642.14 120.39 632.21 156.64 635.19 183.71C635.94 190.52 637.71 197.17 641.1 203.16C662.5 240.92 706.33 242.86 706.33 298.77C706.33 339.11 641.97 355.09 607.21 360.34" stroke="#A9C6EA" stroke-miterlimit="10" stroke-dasharray="5 5"/>
<path d="M605.47 360.6C604.63 360.72 603.8 360.84 603 360.95" stroke="#A9C6EA" stroke-miterlimit="10"/>
<path d="M102.8 188.69H117.07" stroke="#A9C6EA" stroke-miterlimit="10"/>
<path d="M117.07 196.62H131.33" stroke="#A9C6EA" stroke-miterlimit="10"/>
<path d="M538.06 126.38H552.32" stroke="#A9C6EA" stroke-miterlimit="10"/>
<path d="M529 134.32H543.27" stroke="#A9C6EA" stroke-miterlimit="10"/>
<path d="M550.74 130.53H570.12" stroke="#A9C6EA" stroke-miterlimit="10"/>
<path d="M675.13 295.45H685.39" stroke="#A9C6EA" stroke-miterlimit="10"/>
<path d="M665.82 287.61H680.08" stroke="#A9C6EA" stroke-miterlimit="10"/>
<path d="M203.54 87.88H217.8" stroke="#A9C6EA" stroke-miterlimit="10"/>
<path d="M180.3 259.76H203.76" stroke="#A9C6EA" stroke-miterlimit="10"/>
<path d="M208.71 259.76H220.88" stroke="#A9C6EA" stroke-miterlimit="10"/>
<path d="M482.7 229.85C482.7 232.39 480.64 234.45 478.1 234.45C475.56 234.45 473.5 232.39 473.5 229.85C473.5 227.31 475.56 225.25 478.1 225.25C480.64 225.24 482.7 227.3 482.7 229.85Z" stroke="#A9C6EA" stroke-miterlimit="10"/>
<path d="M663.63 197.99C663.63 200.53 661.57 202.59 659.03 202.59C656.49 202.59 654.43 200.53 654.43 197.99C654.43 195.45 656.49 193.39 659.03 193.39C661.57 193.39 663.63 195.45 663.63 197.99Z" stroke="#A9C6EA" stroke-miterlimit="10"/>
<path d="M492.73 98.75C492.73 101.29 490.67 103.35 488.13 103.35C485.59 103.35 483.53 101.29 483.53 98.75C483.53 96.21 485.59 94.15 488.13 94.15C490.67 94.15 492.73 96.2 492.73 98.75Z" stroke="#A9C6EA" stroke-miterlimit="10"/>
<path d="M582.68 105.64C582.68 106.9 581.65 107.93 580.39 107.93C579.13 107.93 578.1 106.9 578.1 105.64C578.1 104.38 579.13 103.35 580.39 103.35C581.65 103.35 582.68 104.37 582.68 105.64Z" stroke="#A9C6EA" stroke-miterlimit="10"/>
<path d="M442.66 277.71C442.66 278.97 441.63 280 440.37 280C439.11 280 438.08 278.97 438.08 277.71C438.08 276.45 439.11 275.42 440.37 275.42C441.63 275.42 442.66 276.45 442.66 277.71Z" stroke="#A9C6EA" stroke-miterlimit="10"/>
<path d="M176.54 113.44C176.54 114.7 175.51 115.73 174.25 115.73C172.99 115.73 171.96 114.7 171.96 113.44C171.96 112.18 172.99 111.15 174.25 111.15C175.52 111.15 176.54 112.18 176.54 113.44Z" stroke="#A9C6EA" stroke-miterlimit="10"/>
<path d="M73.03 256.55C73.03 257.81 72 258.84 70.74 258.84C69.48 258.84 68.45 257.81 68.45 256.55C68.45 255.29 69.48 254.26 70.74 254.26C72 254.26 73.03 255.29 73.03 256.55Z" stroke="#A9C6EA" stroke-miterlimit="10"/>
<path d="M185.84 209.64C185.84 210.9 184.81 211.93 183.55 211.93C182.29 211.93 181.26 210.9 181.26 209.64C181.26 208.38 182.29 207.35 183.55 207.35C184.82 207.35 185.84 208.37 185.84 209.64Z" stroke="#A9C6EA" stroke-miterlimit="10"/>
<path d="M115.17 138.57V143.99" stroke="#A9C6EA" stroke-miterlimit="10"/>
<path d="M117.88 141.28H112.46" stroke="#A9C6EA" stroke-miterlimit="10"/>
<path d="M432.25 66.27V71.69" stroke="#A9C6EA" stroke-miterlimit="10"/>
<path d="M434.96 68.98H429.54" stroke="#A9C6EA" stroke-miterlimit="10"/>
<path d="M602.84 150.09V155.51" stroke="#A9C6EA" stroke-miterlimit="10"/>
<path d="M605.55 152.8H600.13" stroke="#A9C6EA" stroke-miterlimit="10"/>
<path d="M691.45 222.53V227.95" stroke="#A9C6EA" stroke-miterlimit="10"/>
<path d="M694.16 225.24H688.74" stroke="#A9C6EA" stroke-miterlimit="10"/>
<path d="M665.82 317.67V323.09" stroke="#A9C6EA" stroke-miterlimit="10"/>
<path d="M668.53 320.38H663.11" stroke="#A9C6EA" stroke-miterlimit="10"/>
<path d="M510.68 257.61C512.41 254.56 513.83 251.27 514.85 247.76C515.87 244.25 516.44 240.71 516.61 237.21L506.98 235.88C507.06 232.63 506.69 229.43 505.92 226.35L515.04 222.94C513.14 216.03 509.62 209.64 504.81 204.32L497.05 210.2C494.86 207.9 492.36 205.87 489.57 204.2L493.61 195.35C490.56 193.62 487.27 192.2 483.76 191.18C480.25 190.16 476.71 189.59 473.21 189.42L471.88 199.05C468.63 198.97 465.43 199.34 462.35 200.11L458.94 190.99C452.03 192.89 445.64 196.41 440.32 201.22L446.2 208.98C443.9 211.17 441.87 213.67 440.2 216.46L431.35 212.42C429.62 215.47 428.2 218.76 427.18 222.27C426.16 225.78 425.59 229.32 425.42 232.82L435.05 234.15C434.97 237.4 435.34 240.6 436.11 243.68L426.99 247.09C428.89 254 432.41 260.39 437.22 265.71L444.98 259.84C447.17 262.14 449.67 264.17 452.46 265.84L448.42 274.69C451.47 276.42 454.76 277.84 458.27 278.86C461.78 279.88 465.32 280.45 468.82 280.62L470.15 270.99C473.4 271.07 476.6 270.7 479.68 269.93L483.09 279.05C490 277.15 496.39 273.63 501.71 268.82L495.84 261.06C498.14 258.87 500.17 256.37 501.84 253.58L510.68 257.61ZM464.58 257.14C452.36 253.59 445.34 240.81 448.89 228.59C452.44 216.37 465.22 209.35 477.44 212.9C489.66 216.45 496.68 229.23 493.13 241.45C489.58 253.66 476.8 260.69 464.58 257.14ZM466.27 251.33C457.26 248.71 452.08 239.29 454.7 230.28C457.32 221.27 466.74 216.09 475.75 218.71C484.76 221.33 489.94 230.75 487.32 239.76C484.71 248.77 475.28 253.95 466.27 251.33Z" fill="#E4ECF9"/>
<path d="M520.43 163.74C520.28 162.02 519.93 160.28 519.36 158.57C518.79 156.86 518.03 155.26 517.12 153.79L512.83 155.95C511.95 154.61 510.9 153.41 509.73 152.37L512.48 148.43C509.77 146.15 506.55 144.54 503.1 143.73L501.59 148.29C500.06 147.97 498.47 147.85 496.87 147.95L496.03 143.22C494.31 143.37 492.57 143.72 490.86 144.29C489.15 144.86 487.55 145.62 486.08 146.53L488.24 150.82C486.9 151.7 485.7 152.75 484.66 153.92L480.72 151.17C478.44 153.88 476.83 157.1 476.02 160.55L480.58 162.06C480.26 163.59 480.14 165.18 480.24 166.78L475.51 167.62C475.66 169.34 476.01 171.08 476.58 172.79C477.15 174.5 477.91 176.1 478.82 177.57L483.11 175.41C483.99 176.75 485.04 177.95 486.21 178.99L483.46 182.93C486.17 185.21 489.39 186.82 492.84 187.63L494.35 183.07C495.88 183.39 497.47 183.51 499.07 183.41L499.91 188.14C501.63 187.99 503.37 187.64 505.08 187.07C506.79 186.5 508.39 185.74 509.86 184.83L507.7 180.54C509.04 179.66 510.24 178.61 511.28 177.44L515.22 180.19C517.5 177.48 519.11 174.26 519.92 170.81L515.36 169.3C515.68 167.77 515.8 166.18 515.7 164.58L520.43 163.74ZM501 174.77C495.98 176.44 490.56 173.73 488.89 168.71C487.22 163.69 489.93 158.27 494.95 156.6C499.97 154.93 505.39 157.64 507.06 162.66C508.73 167.68 506.01 173.1 501 174.77Z" fill="#E4ECF9"/>
<path d="M284.24 131.34C284.01 128.7 283.48 126.05 282.61 123.43C281.74 120.81 280.57 118.36 279.18 116.11L272.62 119.41C271.27 117.35 269.67 115.52 267.87 113.94L272.08 107.91C267.93 104.43 263 101.96 257.73 100.72L255.42 107.71C253.07 107.22 250.64 107.03 248.19 107.19L246.9 99.95C244.26 100.18 241.61 100.71 238.98 101.58C236.36 102.45 233.91 103.62 231.66 105.01L234.96 111.57C232.9 112.92 231.07 114.52 229.49 116.32L223.46 112.11C219.98 116.26 217.51 121.19 216.27 126.46L223.26 128.77C222.77 131.12 222.58 133.55 222.74 136L215.5 137.29C215.73 139.93 216.26 142.58 217.13 145.2C218 147.82 219.17 150.27 220.56 152.52L227.12 149.22C228.47 151.28 230.07 153.11 231.87 154.69L227.66 160.72C231.81 164.2 236.74 166.67 242.01 167.91L244.32 160.92C246.67 161.41 249.1 161.6 251.55 161.44L252.84 168.68C255.48 168.45 258.13 167.92 260.75 167.05C263.37 166.18 265.82 165.01 268.07 163.62L264.77 157.06C266.83 155.71 268.66 154.11 270.24 152.31L276.27 156.52C279.75 152.37 282.22 147.44 283.46 142.17L276.47 139.86C276.96 137.51 277.15 135.08 276.99 132.63L284.24 131.34ZM254.5 148.22C246.82 150.77 238.53 146.62 235.97 138.94C233.42 131.26 237.57 122.97 245.25 120.41C252.93 117.86 261.22 122.01 263.78 129.69C266.33 137.37 262.17 145.66 254.5 148.22Z" fill="#E4ECF9"/>
<path d="M218.48 186C219.46 184.27 220.26 182.41 220.84 180.42C221.42 178.43 221.74 176.43 221.84 174.44L216.38 173.68C216.42 171.84 216.22 170.03 215.78 168.28L220.95 166.35C219.87 162.43 217.88 158.81 215.15 155.8L210.75 159.13C209.51 157.83 208.09 156.68 206.51 155.73L208.8 150.72C207.07 149.74 205.21 148.94 203.22 148.36C201.23 147.78 199.23 147.46 197.24 147.36L196.48 152.82C194.64 152.78 192.83 152.98 191.08 153.42L189.15 148.25C185.23 149.33 181.61 151.32 178.6 154.05L181.93 158.45C180.63 159.69 179.48 161.11 178.53 162.69L173.52 160.4C172.54 162.13 171.74 163.99 171.16 165.98C170.58 167.97 170.26 169.97 170.16 171.96L175.62 172.72C175.58 174.56 175.78 176.37 176.22 178.12L171.05 180.05C172.13 183.97 174.12 187.59 176.85 190.6L181.25 187.27C182.49 188.57 183.91 189.72 185.49 190.67L183.2 195.68C184.93 196.66 186.79 197.46 188.78 198.04C190.77 198.62 192.77 198.94 194.76 199.04L195.52 193.58C197.36 193.63 199.17 193.42 200.92 192.98L202.85 198.15C206.77 197.07 210.39 195.08 213.4 192.35L210.07 187.95C211.37 186.71 212.52 185.29 213.47 183.71L218.48 186ZM192.37 185.74C185.45 183.73 181.47 176.49 183.48 169.57C185.49 162.65 192.73 158.67 199.65 160.68C206.57 162.69 210.55 169.93 208.54 176.85C206.53 183.77 199.29 187.75 192.37 185.74ZM193.33 182.45C188.23 180.97 185.29 175.63 186.77 170.52C188.25 165.42 193.59 162.48 198.7 163.96C203.8 165.44 206.74 170.78 205.26 175.89C203.77 181 198.43 183.93 193.33 182.45Z" fill="#E4ECF9"/>
<path d="M344.31 460.2C347.35 453.92 363.23 426.41 379.97 417.33C382.1 416.18 384.34 415.11 386.75 414.88C389.16 414.65 391.79 415.42 393.25 417.35C394.58 419.11 394.73 421.52 394.34 423.69C391.3 440.89 371.71 447.48 362.14 460.2" fill="#D7E3F4"/>
<path d="M344.31 460.1C344.31 460.1 360.06 429.01 375.44 410.49C382.72 401.72 387.72 385.48 380.07 380.61C368.99 373.57 358.11 389.25 353.12 397.04C345.58 408.82 340.03 421.85 335.75 435.13C335.13 437.05 329.48 460.1 329.37 460.1H333.19H344.31Z" fill="#D7E3F4"/>
<path d="M374.43 389.51C359.91 407.87 347.86 435.06 339.85 460.1" stroke="white" stroke-miterlimit="10"/>
<path d="M311.28 460.1C311.28 460.1 309.45 412.26 288.28 390.14C282.56 384.16 273.18 377.95 265.49 376.25C255.52 374.05 255.79 385.77 257.59 393.37C259.93 403.22 267.98 409.36 273.78 416.69C284.46 430.19 290.83 439.09 298.63 460.09" fill="#B2CDED"/>
<path d="M317.65 460.1C323.36 449.64 321.35 404.94 318.49 390.93C316.5 381.2 312.41 371.7 306.82 363.93C301.76 356.89 286.62 341.36 277.71 347.67C272.56 351.32 280.36 364.46 282.42 368.41C289.1 381.2 294.39 394.88 298.52 408.95C303.31 425.23 306.92 442.33 308.22 459.45C308.24 459.67 308.25 459.88 308.27 460.1" fill="#D7E3F4"/>
<path d="M318.69 460.1C316.81 435.07 318.01 396.65 329.3 374.95C342.1 350.34 358.78 338.98 361.2 348.57C368.22 376.39 340.04 451.2 332.11 460.1" fill="#B2CDED"/>
<path d="M262.7 384.24C285.48 400.12 301.2 430.19 304.13 460.1" stroke="white" stroke-miterlimit="10"/>
<path d="M286.01 355.65C297.2 365.64 302.89 381.28 306.33 396.41C311.07 417.26 313.35 438.62 314.1 460.09" stroke="white" stroke-miterlimit="10"/>
<path d="M354.01 359.09C340.23 390.74 328.61 424.94 326.67 460.1" stroke="white" stroke-miterlimit="10"/>
<path d="M386.52 420.89C386.52 420.89 366.39 434.26 352.33 460.11" stroke="white" stroke-miterlimit="10"/>
<path d="M592.55 460.02C595.54 420.48 592.21 381.7 607.27 344.23C611.55 333.6 621.29 316.82 634.76 316.25C655.57 315.36 642.83 357.17 639.06 372.81C636.64 382.87 633.02 392.88 629.27 402.49C622.61 419.55 612.6 443.39 605.03 460.01" fill="#B2CDED"/>
<path d="M581.75 460.02C575.2 443.26 568.79 426.44 562.31 409.65C556.56 394.76 549.88 380.2 545.23 364.9C541.7 353.26 532.56 326.57 545.93 318.37C569.74 303.76 588.78 360.28 591.29 380.35C594.6 406.81 593.89 433.42 594.28 460.01" fill="#D7E3F4"/>
<path d="M562.82 460.02C562.82 460.02 548.9 442.24 542.63 433.91C528.61 415.29 511.32 395.06 513.9 374.13C514.49 369.31 516.26 363.95 521.1 361.1C524.06 359.36 527.74 358.87 531.1 359.19C542.49 360.28 552.7 376.82 557.83 385.3C567.87 401.91 583.41 460.02 583.41 460.02" fill="#B2CDED"/>
<path d="M552.18 330.09C569.17 364.44 585.75 428.06 586.15 460.02" stroke="white" stroke-miterlimit="10"/>
<path d="M525.77 369.55C540.72 398.26 571.11 460.02 571.11 460.02" stroke="white" stroke-miterlimit="10"/>
<path d="M633.89 325.34C621.69 352.54 604.98 411.5 598.25 460.1" stroke="white" stroke-miterlimit="10"/>
<path d="M605.61 460.02C605.61 460.02 612.56 429.03 617.38 411.44C622.62 392.31 639.74 363.04 657.74 354.72C661.88 352.81 666.88 351.49 670.89 353.68C673.34 355.02 675.01 357.5 675.91 360.14C678.97 369.09 663.98 397.34 658.83 405.27C648.74 420.8 634.28 445.47 622.82 460.02" fill="#D7E3F4"/>
<path d="M667.55 360.95C646.27 379.43 617.8 438.35 609.84 460.02" stroke="white" stroke-miterlimit="10"/>
<path d="M143.76 440.74C141.03 426.29 136.56 397.63 133.17 380.05C131.53 371.54 126.78 361.15 123.77 353.07C118.27 338.34 104.98 312.74 88.5 314.11C68.05 315.81 84.58 352.57 89.78 366.45C93.13 375.37 97.64 384.1 102.25 392.46C110.42 407.28 122.53 427.92 131.55 442.24" fill="#B2CDED"/>
<path d="M155.57 425.15C150.58 412.1 151.93 395.5 151.95 381.69C151.98 356.83 160.61 321.88 176.8 305.57C183.47 298.85 194.52 291.37 201.69 301.65C208.48 311.39 200.63 337.85 198.15 349.22C193.3 371.48 170.1 412.72 163.39 434.28" fill="#B2CDED"/>
<path d="M189.79 313C178.29 342.84 162.82 397.27 158.88 429.01" stroke="white" stroke-miterlimit="10"/>
<path d="M90.23 322.35C104.81 345.8 126.17 396.02 137.48 439.74" stroke="white" stroke-miterlimit="10"/>
<path d="M144.34 409.15C150.47 399.11 157.75 366.53 159.41 354.89C161.74 338.52 161.99 321.22 157.94 305.09C155.2 294.21 142.69 261.65 126.98 276.33C119.6 283.23 120.78 320.8 121.66 330.86C123.38 350.56 133.58 385.83 137.09 405.29" fill="#D7E3F4"/>
<path d="M135.68 284.72C146.46 312.81 143.73 382.61 140.36 407.03" stroke="white" stroke-miterlimit="10"/>
<path d="M48.5 460.1H676.32" stroke="#648ACC" stroke-miterlimit="10"/>
<path d="M301.89 177.42C304.96 174.39 312.41 164.16 313.25 164.41C314.1 164.66 311.52 168.3 312.26 168.37C312.99 168.45 317.33 163.13 318.11 163.6C319.16 164.25 314.43 169.46 314.43 169.46C314.43 169.46 319.9 164.01 320.65 164.83C321.18 165.41 317.2 169.77 315.89 171.62C317.57 169.79 320.64 167.15 321.18 167.77C321.72 168.38 319.07 171.4 317.16 173.83C318.49 172.43 321.05 170.01 321.58 170.56C322.1 171.11 315.7 180.86 309.83 187.98" fill="#F886BC"/>
<path d="M262.82 214.79C288.93 192.48 306.45 172.09 306.45 172.09L316.25 178.64C316.25 178.64 299.79 204.15 278.25 226.11" fill="#F886BC"/>
<path d="M255.02 222.25C260.41 215.48 269.32 208.93 269.32 208.93L285.13 221.72L271.26 238" fill="#BF2C4C"/>
<path d="M282.27 338.24L273.9 448.49L283.81 454.8C283.81 454.8 256.59 456.22 255.7 455.33C254.81 454.44 256.82 448.33 256.82 448.33L252.27 337.99L282.27 338.24Z" fill="#F886BC"/>
<path d="M260.03 455.24L255.98 451.25L256.55 449.16L262.78 455.25L265.78 455.26L276.35 450.04L287.82 457.22C289.15 458.05 288.55 460.1 286.99 460.09L271.57 460.03L266.65 456.61L265.25 456.6L265.24 460.01L255.2 459.97L255.22 455.21L260.03 455.24Z" fill="#28364C"/>
<path d="M260.28 337.65L235.59 448.49L245.5 454.8C245.5 454.8 218.28 456.22 217.39 455.33C216.5 454.44 218.51 448.33 218.51 448.33L225.73 337.66H260.28V337.65Z" fill="#F886BC"/>
<path d="M221.72 455.24L217.67 451.25L218.24 449.16L224.47 455.25L227.47 455.26L238.04 450.04L249.51 457.22C250.84 458.05 250.24 460.1 248.68 460.09L233.26 460.03L228.34 456.61L226.94 456.6L226.93 460.01L216.89 459.97L216.91 455.21L221.72 455.24Z" fill="#28364C"/>
<path d="M234.32 280.48C220.74 304.39 220.76 348.86 220.76 348.86H283.73C283.73 348.86 282.86 309.79 275.83 287.78L234.32 280.48Z" fill="#101D54"/>
<path d="M255.36 282.63L256.93 348.86" stroke="#273B7A" stroke-width="0.75" stroke-miterlimit="10"/>
<path d="M269.3 285.41C269.3 285.41 266.12 293.48 255.37 296.27" stroke="#273B7A" stroke-width="0.75" stroke-miterlimit="10"/>
<path d="M324.97 257.23C329.11 258.43 341.67 259.96 341.86 260.82C342.05 261.68 337.63 261.2 337.92 261.88C338.21 262.56 344.97 263.75 344.93 264.67C344.88 265.91 338.02 264.31 338.02 264.31C338.02 264.31 345.44 266.43 345.09 267.49C344.84 268.24 339.1 266.88 336.84 266.64C339.25 267.22 343.06 268.61 342.78 269.39C342.5 270.16 338.58 269.31 335.53 268.83C337.4 269.31 340.76 270.37 340.54 271.09C340.32 271.81 330.62 270.43 321.55 268.77" fill="#F886BC"/>
<path d="M250.89 215.86C250.89 215.86 251.93 218.52 257.58 218.52C261.53 218.52 263.02 216.45 263.02 216.45C263.02 216.45 264.47 217.75 280.03 238.17C283.32 242.49 282.61 251.82 277.11 259.88C275.81 267.98 275.32 277.41 275.83 287.78H230.81C230.81 287.78 230.02 255.43 233.14 237.79C234.98 227.36 242.8 219.06 250.89 215.86Z" fill="#E03B5A"/>
<path d="M280.64 229.85C310.64 253.39 331.44 258.5 331.44 258.5L328.99 270.03C328.99 270.03 292.96 265.46 269.29 245.57" fill="#F886BC"/>
<path fill-rule="evenodd" clip-rule="evenodd" d="M263.21 217.23C270.91 218.52 282.72 229.85 282.72 229.85L270.18 248.25C270.18 248.25 264.86 244.57 257.64 238.37" fill="#E03B5A"/>
<path d="M270.19 247.57C260.8 241.85 256.58 237.66 256.58 237.66" stroke="#A31D4A" stroke-width="0.75" stroke-miterlimit="10"/>
<path fill-rule="evenodd" clip-rule="evenodd" d="M266.57 195.92C269.7 201.09 270.99 206.27 266.61 208.92C262.23 211.57 255.17 212.89 250.69 205.53C247.55 200.36 248.58 194.01 252.96 191.36C257.35 188.71 263.44 190.75 266.57 195.92Z" fill="#F886BC"/>
<path d="M262.93 197.25C263.07 197.77 263.49 198.39 264.01 198.37C264.16 198.36 264.27 198.27 264.31 198.14C264.61 197.25 262.63 196.15 262.93 197.25Z" fill="#0B0B3A"/>
<path d="M260.85 196.8C261.66 195.66 262.73 195.19 263.82 195.06" stroke="#0B0B3A" stroke-width="0.5" stroke-miterlimit="10" stroke-linecap="round"/>
<path d="M267.77 201.82L264.87 203.27C264.87 203.27 265.89 205.77 267.46 205.31C268.77 204.91 267.77 201.82 267.77 201.82Z" fill="white"/>
<path fill-rule="evenodd" clip-rule="evenodd" d="M263.21 217.23C263.21 217.23 260.7 218.6 257.58 218.52C253.05 218.41 250.89 216.6 250.89 216.6L253.88 203.84L264.86 204.64L263.21 217.23Z" fill="#F886BC"/>
<path fill-rule="evenodd" clip-rule="evenodd" d="M265.52 196.16C265.52 196.16 269.27 198.67 269.4 199.34C269.53 200.01 267.95 200.97 267.95 200.97" fill="#F886BC"/>
<path d="M255.02 187.8C254.62 188 253.22 187.63 252.71 187.63C252 187.63 251.28 187.68 250.58 187.81C246.4 188.57 243.28 192.03 241.31 195.59C240.02 197.93 238.93 200.53 236.58 202.01C231.41 205.27 224.62 204.1 218.82 206.05C212.92 208.04 208.41 214.02 209.99 220.4C210.51 222.49 211.61 224.39 212.25 226.45C213.63 230.83 212.98 235.94 215.62 239.7C216.33 240.71 217.24 241.56 218.22 242.31C222.62 245.65 228.61 246.81 233.94 245.33C239.27 243.86 243.82 239.79 245.87 234.66C248.21 228.83 247.48 221.87 250.89 216.6C252.48 214.13 254.87 212.25 256.45 209.78C257.9 207.52 258.66 203.27 258.83 200.55C258.87 199.92 257.74 194.7 258.08 194.7C260.79 194.7 264.26 193.01 265.86 191.41C263.83 186.93 258.62 185.97 255.02 187.8Z" fill="#0B0B3A"/>
<path d="M257.95 201.23C257.95 201.23 256.38 200.14 255.34 201.68C254 203.68 257.22 206.2 258.77 206.32C260.32 206.44 260.28 204.75 260.28 204.75" fill="#F886BC"/>
<path d="M595.09 169.54H497.18V300.29H595.09V169.54Z" fill="#D9E4F4" stroke="#648ACC" stroke-miterlimit="10"/>
<path d="M609.71 169.54H511.8V300.29H609.71V169.54Z" fill="white" stroke="#648ACC" stroke-miterlimit="10"/>
<path opacity="0.45" d="M593.5 196.8H528.8C526.81 196.8 525.2 195.19 525.2 193.2V183.3C525.2 181.31 526.81 179.7 528.8 179.7H593.5C595.49 179.7 597.1 181.31 597.1 183.3V193.2C597.1 195.19 595.49 196.8 593.5 196.8Z" fill="#D7E3F4"/>
<path opacity="0.45" d="M562.99 289.51H528.8C526.81 289.51 525.2 287.9 525.2 285.91V245.05C525.2 243.06 526.81 241.45 528.8 241.45H562.99C564.98 241.45 566.59 243.06 566.59 245.05V285.91C566.58 287.9 564.97 289.51 562.99 289.51Z" fill="#D7E3F4"/>
<path d="M530.57 213.81C530.57 213.81 530.15 213.81 528.39 213.81C526.63 213.81 525.21 211.94 525.21 209.64C525.21 207.34 526.63 205.47 528.39 205.47C528.72 205.47 530.57 205.47 530.57 205.47V213.81Z" fill="#B2CDED"/>
<path d="M533.75 209.64C533.75 211.94 532.33 213.81 530.57 213.81C528.81 213.81 527.39 211.94 527.39 209.64C527.39 207.34 528.81 205.47 530.57 205.47C532.33 205.47 533.75 207.33 533.75 209.64Z" fill="#D7E3F4"/>
<path d="M551.69 213.81C551.69 213.81 551.27 213.81 549.51 213.81C547.75 213.81 546.33 211.94 546.33 209.64C546.33 207.34 547.75 205.47 549.51 205.47C549.84 205.47 551.69 205.47 551.69 205.47V213.81Z" fill="#B2CDED"/>
<path d="M554.87 209.64C554.87 211.94 553.45 213.81 551.69 213.81C549.93 213.81 548.51 211.94 548.51 209.64C548.51 207.34 549.93 205.47 551.69 205.47C553.44 205.46 554.87 207.33 554.87 209.64Z" fill="#D7E3F4"/>
<path d="M572.8 213.81C572.8 213.81 572.38 213.81 570.62 213.81C568.86 213.81 567.44 211.94 567.44 209.64C567.44 207.34 568.86 205.47 570.62 205.47C570.95 205.47 572.8 205.47 572.8 205.47V213.81Z" fill="#B2CDED"/>
<path d="M575.98 209.64C575.98 211.94 574.56 213.81 572.8 213.81C571.04 213.81 569.62 211.94 569.62 209.64C569.62 207.34 571.04 205.47 572.8 205.47C574.56 205.46 575.98 207.33 575.98 209.64Z" fill="#D7E3F4"/>
<path d="M593.92 213.81C593.92 213.81 593.5 213.81 591.74 213.81C589.98 213.81 588.56 211.94 588.56 209.64C588.56 207.34 589.98 205.47 591.74 205.47C592.07 205.47 593.92 205.47 593.92 205.47V213.81Z" fill="#B2CDED"/>
<path d="M597.1 209.64C597.1 211.94 595.68 213.81 593.92 213.81C592.16 213.81 590.74 211.94 590.74 209.64C590.74 207.34 592.16 205.47 593.92 205.47C595.67 205.46 597.1 207.33 597.1 209.64Z" fill="#D7E3F4"/>
<path d="M530.57 234.02C530.57 234.02 530.15 234.02 528.39 234.02C526.63 234.02 525.21 232.15 525.21 229.85C525.21 227.55 526.63 225.68 528.39 225.68C528.72 225.68 530.57 225.68 530.57 225.68V234.02Z" fill="#B2CDED"/>
<path d="M533.75 229.85C533.75 232.15 532.33 234.02 530.57 234.02C528.81 234.02 527.39 232.15 527.39 229.85C527.39 227.55 528.81 225.68 530.57 225.68C532.33 225.68 533.75 227.54 533.75 229.85Z" fill="#D7E3F4"/>
<path d="M551.69 234.02C551.69 234.02 551.27 234.02 549.51 234.02C547.75 234.02 546.33 232.15 546.33 229.85C546.33 227.55 547.75 225.68 549.51 225.68C549.84 225.68 551.69 225.68 551.69 225.68V234.02Z" fill="#B2CDED"/>
<path d="M554.87 229.85C554.87 232.15 553.45 234.02 551.69 234.02C549.93 234.02 548.51 232.15 548.51 229.85C548.51 227.55 549.93 225.68 551.69 225.68C553.44 225.67 554.87 227.54 554.87 229.85Z" fill="#D7E3F4"/>
<path d="M572.8 234.02C572.8 234.02 572.38 234.02 570.62 234.02C568.86 234.02 567.44 232.15 567.44 229.85C567.44 227.55 568.86 225.68 570.62 225.68C570.95 225.68 572.8 225.68 572.8 225.68V234.02Z" fill="#B2CDED"/>
<path d="M575.98 229.85C575.98 232.15 574.56 234.02 572.8 234.02C571.04 234.02 569.62 232.15 569.62 229.85C569.62 227.55 571.04 225.68 572.8 225.68C574.56 225.67 575.98 227.54 575.98 229.85Z" fill="#D7E3F4"/>
<path d="M593.92 234.02C593.92 234.02 593.5 234.02 591.74 234.02C589.98 234.02 588.56 232.15 588.56 229.85C588.56 227.55 589.98 225.68 591.74 225.68C592.07 225.68 593.92 225.68 593.92 225.68V234.02Z" fill="#B2CDED"/>
<path d="M597.1 229.85C597.1 232.15 595.68 234.02 593.92 234.02C592.16 234.02 590.74 232.15 590.74 229.85C590.74 227.55 592.16 225.68 593.92 225.68C595.67 225.67 597.1 227.54 597.1 229.85Z" fill="#D7E3F4"/>
<path d="M125.38 460.1H291.54V332.78H167.19L125.38 381.67V460.1Z" fill="white" stroke="#648ACC" stroke-miterlimit="10"/>
<path d="M244.37 460.1H305.6V332.78H285.34L244.37 381.67V460.1Z" fill="#D9E4F4" stroke="#648ACC" stroke-miterlimit="10"/>
<path d="M125.383 460.1H244.373V381.67H125.383L125.383 460.1Z" fill="#D9E4F4" stroke="#648ACC" stroke-miterlimit="10"/>
<path d="M255.02 347.05C256.16 348.09 258.49 347.39 260.23 345.48C261.97 343.57 262.45 341.18 261.31 340.14C260.54 339.43 258.95 337.98 258.95 337.98L252.67 344.89C252.66 344.89 253.88 346.01 255.02 347.05Z" fill="#B2CDED"/>
<path d="M252.81 345.03C253.95 346.07 256.28 345.37 258.01 343.46C259.75 341.55 260.23 339.16 259.09 338.12C257.95 337.08 255.62 337.78 253.89 339.69C252.15 341.59 251.67 343.99 252.81 345.03Z" fill="#D7E3F4"/>
<path d="M236.5 347.05C237.64 348.09 239.97 347.39 241.71 345.48C243.45 343.57 243.93 341.18 242.79 340.14C242.02 339.43 240.43 337.98 240.43 337.98L234.15 344.89C234.14 344.89 235.36 346.01 236.5 347.05Z" fill="#B2CDED"/>
<path d="M234.29 345.03C235.43 346.07 237.76 345.37 239.49 343.46C241.23 341.55 241.71 339.16 240.57 338.12C239.43 337.08 237.1 337.78 235.36 339.69C233.63 341.59 233.15 343.99 234.29 345.03Z" fill="#D7E3F4"/>
<path d="M198.37 347.05C199.51 348.09 201.84 347.39 203.58 345.48C205.32 343.57 205.8 341.18 204.66 340.14C203.89 339.43 202.3 337.98 202.3 337.98L196.02 344.89C196.01 344.89 197.23 346.01 198.37 347.05Z" fill="#B2CDED"/>
<path d="M196.16 345.03C197.3 346.07 199.63 345.37 201.36 343.46C203.1 341.55 203.58 339.16 202.44 338.12C201.3 337.08 198.97 337.78 197.23 339.69C195.5 341.59 195.02 343.99 196.16 345.03Z" fill="#D7E3F4"/>
<path d="M178.73 347.05C179.87 348.09 182.2 347.39 183.94 345.48C185.68 343.57 186.16 341.18 185.02 340.14C184.25 339.43 182.66 337.98 182.66 337.98L176.38 344.89C176.37 344.89 177.59 346.01 178.73 347.05Z" fill="#B2CDED"/>
<path d="M176.52 345.03C177.66 346.07 179.99 345.37 181.72 343.46C183.46 341.55 183.94 339.16 182.8 338.12C181.66 337.08 179.33 337.78 177.59 339.69C175.86 341.59 175.38 343.99 176.52 345.03Z" fill="#D7E3F4"/>
<path opacity="0.45" d="M242.96 372.76L249.56 364.2H149.01L141.46 372.76H242.96Z" fill="#D7E3F4"/>
<path d="M354.15 313.28V419.61C354.15 424.75 349.98 428.92 344.84 428.92H285.69C280.55 428.92 276.38 424.75 276.38 419.61V416.56" stroke="#648ACC" stroke-miterlimit="10"/>
<path d="M368.81 318.16V439.65C368.81 444.9 364.56 449.15 359.31 449.15H265.26C260.12 449.15 255.95 444.98 255.95 439.84V416.58" stroke="#648ACC" stroke-miterlimit="10"/>
<path d="M395.42 316.12V386.6C395.42 391.74 399.59 395.91 404.73 395.91H478.19C483.33 395.91 487.5 391.74 487.5 386.6V265.86C487.5 260.72 491.67 256.55 496.81 256.55H527.1" stroke="#648ACC" stroke-miterlimit="10"/>
<path d="M383.61 318.16V416.94C383.61 422.08 387.78 426.25 392.92 426.25H527.79C532.93 426.25 537.1 422.08 537.1 416.94V279.61" stroke="#648ACC" stroke-miterlimit="10"/>
<path d="M287.37 163.58C287.37 115.19 326.6 75.95 375 75.95C423.39 75.95 462.63 115.18 462.63 163.58C462.63 182.87 456.39 200.7 445.83 215.18C433.32 234.03 400.82 255.31 400.82 268.06V282.62C400.82 285.53 398.46 287.88 395.56 287.88H381.48H368.54H354.46C351.55 287.88 349.2 285.52 349.2 282.62V268.06C349.2 255.31 316.7 234.03 304.19 215.18C293.61 200.71 287.37 182.88 287.37 163.58Z" fill="#5EBAF2"/>
<path d="M384.95 286.43C384.85 284.23 383.28 249.06 386.1 218.23C382.65 218.64 378.95 218.86 375 218.86C371.05 218.86 367.36 218.64 363.9 218.23C366.72 249.06 365.15 284.23 365.04 286.43L363.49 286.36C363.51 285.82 365.14 249.44 362.26 218.02C336.27 214.41 324.64 199.68 322.55 185.79C321.33 177.67 324.1 169.59 329.14 166.57C332.2 164.74 335.9 164.37 339.83 165.5C346.02 167.28 351.9 172.61 355.56 179.77C359.79 188.04 362.29 201.76 363.73 216.66C367.22 217.09 370.96 217.32 374.97 217.32C378.99 217.32 382.73 217.09 386.21 216.66C387.65 201.76 390.15 188.04 394.38 179.77C398.04 172.61 403.93 167.28 410.11 165.5C414.04 164.37 417.74 164.74 420.8 166.57C425.84 169.59 428.62 177.67 427.39 185.79C425.3 199.69 413.67 214.41 387.68 218.02C384.8 249.43 386.43 285.81 386.45 286.36L384.95 286.43ZM414.49 166.41C413.24 166.41 411.93 166.6 410.58 166.99C404.79 168.65 399.27 173.69 395.8 180.47C391.73 188.42 389.3 201.81 387.88 216.44C412.78 212.85 423.92 198.82 425.91 185.56C427.02 178.15 424.5 170.56 420.05 167.9C418.39 166.91 416.51 166.41 414.49 166.41ZM335.51 166.41C333.49 166.41 331.61 166.91 329.95 167.9C325.5 170.56 322.98 178.16 324.09 185.56C326.08 198.81 337.23 212.85 362.12 216.44C360.7 201.81 358.27 188.42 354.2 180.47C350.73 173.69 345.2 168.65 339.42 166.99C338.08 166.61 336.77 166.41 335.51 166.41Z" fill="white"/>
<path d="M448.04 168.61C445.26 168.61 443.01 166.36 443.01 163.58C443.01 132.4 421.93 105.29 391.75 97.65C389.06 96.97 387.43 94.23 388.11 91.54C388.79 88.85 391.53 87.22 394.22 87.9C428.87 96.67 453.07 127.79 453.07 163.58C453.06 166.36 450.81 168.61 448.04 168.61Z" fill="#9F55D9" fill-opacity="0.6"/>
<path d="M373.31 90.41C373.31 93.19 375.56 95.44 378.34 95.44C381.12 95.44 383.37 93.19 383.37 90.41C383.37 87.63 381.12 85.38 378.34 85.38C375.56 85.38 373.31 87.63 373.31 90.41Z" fill="#9F55D9" fill-opacity="0.6"/>
<g opacity="0.55">
<path d="M462.46 168.77C457.62 204.7 428.62 241.9 375 241.9C321.39 241.9 293.46 202.96 287.54 168.77C288.55 186.07 294.56 202.02 304.17 215.18C316.68 234.03 349.18 255.31 349.18 268.06V282.62C349.18 285.53 351.54 287.88 354.44 287.88H368.52H381.46H395.54C398.45 287.88 400.8 285.52 400.8 282.62V268.06C400.8 255.31 433.3 234.03 445.81 215.18C455.43 202.01 461.45 186.06 462.46 168.77Z" fill="#5EBAF2"/>
</g>
<path d="M402.89 274.28H347.12V300.86C347.12 305.2 348.36 309.45 350.68 313.12C355.08 320.05 362.71 324.24 370.92 324.24H379.1C387.31 324.24 394.94 320.04 399.34 313.12C401.67 309.46 402.9 305.2 402.9 300.86V274.28H402.89Z" fill="#28364C"/>
<path d="M347.11 292.2C347.27 292.21 347.43 292.2 347.59 292.18L403.36 286.4C405.26 286.2 406.59 284.49 406.33 282.58C406.07 280.67 404.3 279.27 402.4 279.47L346.62 285.25C344.72 285.45 343.39 287.16 343.65 289.07C343.91 290.83 345.4 292.14 347.11 292.2Z" fill="#475577"/>
<path d="M347.11 304.37C347.27 304.38 347.43 304.37 347.59 304.35L403.36 298.57C405.26 298.37 406.59 296.66 406.33 294.75C406.07 292.84 404.3 291.45 402.4 291.64L346.62 297.42C344.72 297.62 343.39 299.33 343.65 301.24C343.91 302.99 345.4 304.31 347.11 304.37Z" fill="#475577"/>
<path d="M349.34 316.41C349.5 316.42 349.66 316.41 349.82 316.39L402.69 310.91C404.59 310.71 405.92 309 405.66 307.09C405.4 305.18 403.63 303.78 401.73 303.98L348.86 309.46C346.96 309.66 345.63 311.37 345.89 313.28C346.13 315.04 347.63 316.35 349.34 316.41Z" fill="#475577"/>
<path d="M375 38.76V66.29" stroke="#5EBAF2" stroke-width="3" stroke-miterlimit="10" stroke-linecap="round" stroke-linejoin="round"/>
<path d="M424.66 49.73L413.54 74.92" stroke="#5EBAF2" stroke-width="3" stroke-miterlimit="10" stroke-linecap="round" stroke-linejoin="round"/>
<path d="M466.51 80.19L446.16 98.75" stroke="#5EBAF2" stroke-width="3" stroke-miterlimit="10" stroke-linecap="round" stroke-linejoin="round"/>
<path d="M325.34 49.73L336.46 74.92" stroke="#5EBAF2" stroke-width="3" stroke-miterlimit="10" stroke-linecap="round" stroke-linejoin="round"/>
<path d="M283.49 80.19L303.84 98.75" stroke="#5EBAF2" stroke-width="3" stroke-miterlimit="10" stroke-linecap="round" stroke-linejoin="round"/>
<path d="M255.95 418.61C256.999 418.61 257.85 417.759 257.85 416.71C257.85 415.661 256.999 414.81 255.95 414.81C254.901 414.81 254.05 415.661 254.05 416.71C254.05 417.759 254.901 418.61 255.95 418.61Z" fill="#648ACC"/>
<path d="M276.37 418.61C277.419 418.61 278.27 417.759 278.27 416.71C278.27 415.661 277.419 414.81 276.37 414.81C275.321 414.81 274.47 415.661 274.47 416.71C274.47 417.759 275.321 418.61 276.37 418.61Z" fill="#648ACC"/>
<path d="M537.11 281.51C538.159 281.51 539.01 280.659 539.01 279.61C539.01 278.561 538.159 277.71 537.11 277.71C536.061 277.71 535.21 278.561 535.21 279.61C535.21 280.659 536.061 281.51 537.11 281.51Z" fill="#648ACC"/>
<path d="M547.79 281.51C548.839 281.51 549.69 280.659 549.69 279.61C549.69 278.561 548.839 277.71 547.79 277.71C546.741 277.71 545.89 278.561 545.89 279.61C545.89 280.659 546.741 281.51 547.79 281.51Z" fill="#648ACC"/>
<path d="M560.38 279.61C560.38 280.66 559.53 281.51 558.48 281.51C557.43 281.51 556.58 280.66 556.58 279.61C556.58 278.56 557.43 277.71 558.48 277.71C559.53 277.71 560.38 278.56 560.38 279.61Z" fill="#648ACC"/>
<path d="M527.11 258.45C528.159 258.45 529.01 257.599 529.01 256.55C529.01 255.501 528.159 254.65 527.11 254.65C526.061 254.65 525.21 255.501 525.21 256.55C525.21 257.599 526.061 258.45 527.11 258.45Z" fill="#648ACC"/>
<path d="M483.752 403.72C503.69 395.385 513.096 372.465 504.76 352.526C496.425 332.588 473.505 323.182 453.567 331.517C433.628 339.853 424.222 362.773 432.558 382.711C440.893 402.649 463.813 412.055 483.752 403.72Z" fill="#F46072"/>
<path d="M474.94 395.18C490.186 391.715 499.736 376.547 496.272 361.301C492.807 346.055 477.639 336.505 462.393 339.97C447.147 343.434 437.597 358.602 441.062 373.848C444.526 389.094 459.694 398.645 474.94 395.18Z" fill="white"/>
<path d="M449.23 367.6C449.23 378.34 457.94 387.05 468.68 387.05C479.42 387.05 488.13 378.34 488.13 367.6C488.13 356.86 479.42 348.15 468.68 348.15C457.94 348.16 449.23 356.86 449.23 367.6Z" fill="#F46072"/>
<path d="M458.49 367.6C458.49 373.23 463.05 377.79 468.68 377.79C474.31 377.79 478.87 373.23 478.87 367.6C478.87 361.97 474.31 357.41 468.68 357.41C463.05 357.42 458.49 361.98 458.49 367.6Z" fill="white"/>
<path d="M467.1 369.18H473.5L467.1 362.78V369.18Z" fill="#0C3656"/>
<path d="M508.58 327.7H515.9V325.86H510.43V320.38H508.58V327.7Z" fill="#0C3656"/>
<path d="M511.93 324.35H519.25V322.51H513.78V317.03H511.93V324.35Z" fill="#0C3656"/>
<path d="M512.494 322.468L468.236 366.725L469.544 368.033L513.802 323.776L512.494 322.468Z" fill="#0C3656"/>
<path d="M167.71 297.78L162.88 306.95C162.88 306.95 159.59 306.95 155.04 304.71C150.53 302.48 149.21 299.42 149.21 299.42L157.37 288.62" fill="#F886BC"/>
<path d="M177.97 280.46C182.46 283.11 175.04 299.86 170.99 300.92C166.94 301.98 158.9 294.06 156.5 287.36C154.1 280.65 161.82 276.99 166.35 275.62C170.89 274.26 177.97 280.46 177.97 280.46Z" fill="#F886BC"/>
<path d="M174.64 288.58C174.49 288.85 174.34 289.12 174.21 289.4C174.05 289.74 174.56 290.04 174.72 289.7C174.86 289.4 174.99 289.09 175.11 288.78C175.21 288.5 174.78 288.33 174.64 288.58Z" fill="#00276F"/>
<path d="M177.13 286.95C177.13 286.95 176.14 285.47 173.55 285.99" stroke="#00276F" stroke-width="0.75" stroke-miterlimit="10" stroke-linecap="round" stroke-linejoin="round"/>
<path d="M170.69 295.1L173.55 297.14C173.55 297.14 172.43 299.3 171.41 298.46C170.39 297.62 170.69 295.1 170.69 295.1Z" fill="white"/>
<path d="M182 284.13C179.96 283.47 177.72 282.23 176.18 281.46C174.12 281.89 171.97 283.82 171.92 286.01C171.91 286.5 171.86 287.17 171.37 287.24C171.03 287.29 170.75 286.96 170.66 286.63C170.57 286.3 170.58 285.95 170.44 285.63C170.17 285 169.33 284.74 168.68 284.97C168.03 285.19 167.56 285.79 167.29 286.42C166.61 288.05 166 290.02 167.56 291.39C167.8 291.6 168.08 291.79 168.24 292.07C168.58 292.68 168.18 293.43 167.78 294C166.54 295.78 164.68 297.78 161.03 297.78C158.47 297.78 154.2 294.4 153.92 292.71C153.89 292.56 151.44 282.2 156 275.62C158.44 272.09 162.75 269.51 167.23 269.89C170 270.12 172.42 271.75 173.78 272.81C181.26 274.18 182.86 281.89 182 284.13Z" fill="#212237"/>
<path d="M177.68 290.25C177.68 290.25 178.34 295.27 177.35 295.82C176.36 296.37 174.27 294.94 174.27 294.94" fill="#F886BC"/>
<path d="M179.74 426.22L176.08 449.86L175.89 456.98L203.81 456.84C204.49 456.84 205.04 456.28 205.04 455.6C205.04 455.09 204.72 454.63 204.24 454.45L192.2 448.91L196.96 424.35" fill="#F886BC"/>
<path d="M206.25 456.54C205.96 455.65 205.44 454.64 204.91 454.41L192.14 448.91C185.1 451.76 176 449.58 176 449.58L174.38 459.19C174.38 459.51 174.64 459.76 174.96 459.76L206.04 459.6C206.66 459.61 206.26 456.57 206.25 456.54Z" fill="#4868EF"/>
<path d="M194.91 449.47C194.19 450.4 193.59 451.42 193.11 452.49" stroke="#273B7A" stroke-width="0.75" stroke-miterlimit="10"/>
<path d="M196.52 450.43C195.78 451.46 195.48 452.05 195.04 453" stroke="#273B7A" stroke-width="0.75" stroke-miterlimit="10"/>
<path d="M197.88 451.13C197.38 451.81 196.88 452.74 196.49 453.49" stroke="#273B7A" stroke-width="0.75" stroke-miterlimit="10"/>
<path d="M174.54 457.7L206.38 457.54" stroke="#273B7A" stroke-width="0.75" stroke-miterlimit="10"/>
<path d="M175.43 453C175.43 453 182.91 453.15 183.55 457.66" stroke="#273B7A" stroke-width="0.75" stroke-miterlimit="10"/>
<path d="M202.3 453.29C202.3 453.29 200.24 456.22 199.83 457.57" stroke="#273B7A" stroke-width="0.75" stroke-miterlimit="10"/>
<path d="M93.09 432.42L69.8001 429.65L62.6801 429.46L62.8201 457.38C62.8201 458.06 63.3801 458.61 64.0601 458.61C64.5701 458.61 65.0301 458.29 65.2101 457.81L70.7501 445.77L94.8901 448.49" fill="#F886BC"/>
<path d="M63.12 459.82C64.01 459.53 65.02 459.01 65.25 458.48L70.75 445.71C67.9 438.67 70.08 429.57 70.08 429.57L60.47 427.95C60.15 427.95 59.9 428.21 59.9 428.53L60.06 459.61C60.05 460.23 63.09 459.82 63.12 459.82Z" fill="#4868EF"/>
<path d="M70.19 448.48C69.26 447.76 68.24 447.16 67.17 446.68" stroke="#273B7A" stroke-width="0.75" stroke-miterlimit="10"/>
<path d="M69.23 450.08C68.2 449.34 67.61 449.04 66.66 448.6" stroke="#273B7A" stroke-width="0.75" stroke-miterlimit="10"/>
<path d="M68.53 451.44C67.85 450.94 66.92 450.44 66.17 450.05" stroke="#273B7A" stroke-width="0.75" stroke-miterlimit="10"/>
<path d="M61.96 428.11L62.13 459.95" stroke="#273B7A" stroke-width="0.75" stroke-miterlimit="10"/>
<path d="M66.66 428.99C66.66 428.99 66.51 436.47 62 437.11" stroke="#273B7A" stroke-width="0.75" stroke-miterlimit="10"/>
<path d="M66.37 455.86C66.37 455.86 63.44 453.8 62.09 453.39" stroke="#273B7A" stroke-width="0.75" stroke-miterlimit="10"/>
<path d="M106.94 367.52C101.93 380.9 110.1 400.33 110.1 400.33L114.41 431.62L73.5701 429.82L73.9701 456.98C73.9701 456.98 117.78 460.1 128.37 460.1C138.97 460.1 143.06 457.73 146.17 451.52C150.8 442.27 144.14 391.13 144.14 390.28L136.87 357.43" fill="#22252D"/>
<path d="M78.47 430.04L78.78 457.32" stroke="#474B51" stroke-width="0.75" stroke-miterlimit="10"/>
<path d="M121.11 374.75C121.11 374.75 116.47 398.44 140.01 403.53C150.53 405.81 177.27 406.55 177.27 406.55L172.7 443.15H199.41C199.41 443.15 204.94 415.57 206.61 397.12C207.72 384.85 202.44 379.36 192.52 378.13C184.12 377.09 158.86 375.45 158.86 375.45L154.61 370.12" fill="#22252D"/>
<path d="M145.29 404.38C145.29 404.38 125.48 404.44 120.74 382.24" stroke="#474B51" stroke-width="0.75" stroke-miterlimit="10"/>
<path d="M131.19 380.15C131.19 380.15 136.55 381.18 143.53 380.72" stroke="#474B51" stroke-width="0.75" stroke-miterlimit="10"/>
<path d="M105.33 377.02C105.33 377.02 110.61 378.53 114.04 378.5" stroke="#474B51" stroke-width="0.75" stroke-miterlimit="10"/>
<path d="M174.47 438.4H200.4" stroke="#474B51" stroke-width="0.75" stroke-miterlimit="10"/>
<path d="M229.92 337.36H227.79V360.6H229.92V337.36Z" fill="#648ACC"/>
<path d="M228.86 338.93C231.025 338.93 232.78 337.175 232.78 335.01C232.78 332.845 231.025 331.09 228.86 331.09C226.695 331.09 224.94 332.845 224.94 335.01C224.94 337.175 226.695 338.93 228.86 338.93Z" fill="#648ACC"/>
<path d="M209.19 341.68L217.07 342.26C217.07 342.26 223.13 340.21 225.54 340.16C227.02 340.13 227.79 340.91 227.79 340.91C227.79 340.91 227.79 341.71 227.79 343.29C227.79 344.88 229.92 345.58 229.92 344.5V343.19C229.94 343.28 234.29 345.34 231.74 347.3C232.93 347.55 233.57 349.22 231.3 350.38C232.02 350.87 232.85 352.23 231.19 353.32C231.93 354.44 230.43 355.68 229.24 355.93C226.99 356.42 208.95 356.04 208.95 356.04" fill="#F886BC"/>
<path d="M163.18 306.08C176.13 324 169.17 329.8 159.87 375.5C128.78 375.5 104.99 370.12 104.99 370.12C104.99 370.12 112.39 346.14 126.12 319.44C132.66 306.71 143.54 300.38 149.7 298.76" fill="#4868EF"/>
<path d="M143.53 326.23C143.53 326.23 163.54 357.57 173.05 358.96C188.15 361.17 213.12 360.55 213.12 360.55L214.61 338.5C214.61 338.5 182.51 336.88 181.19 336.12C176.89 333.68 163.18 306.08 163.18 306.08" fill="#4868EF"/>
<path d="M164.84 353.24C164.84 353.24 153.1 343.49 145.28 328.36" stroke="#273B7A" stroke-width="0.75" stroke-miterlimit="10"/>
<path d="M209.99 338.25L208.1 360.63" stroke="#273B7A" stroke-width="0.75" stroke-miterlimit="10"/>
<path d="M634.69 303.65C634.21 307.93 630.76 320.11 631.49 320.62C632.21 321.13 633.48 316.86 633.99 317.39C634.5 317.92 633 324.62 633.85 324.93C635.01 325.36 636.18 318.42 636.18 318.42C636.18 318.42 635.27 326.09 636.39 326.17C637.18 326.23 638.14 320.41 638.79 318.23C638.39 320.68 638.21 324.73 639.03 324.77C639.84 324.81 640.58 320.86 641.31 317.87C641.03 319.78 640.71 323.29 641.47 323.36C642.22 323.43 644.69 313.96 646.66 304.94" fill="#F886BC"/>
<path d="M648.63 244.89C648.63 244.89 655.56 257.2 656.56 264.76C659.03 283.38 643.58 314.91 643.58 314.91C643.58 314.91 632.36 311.85 632.36 310.44C632.36 309.03 640.18 275.9 640.18 275.9L628.96 250" fill="#F886BC"/>
<path d="M614.92 204.46L616.43 218.34C616.43 218.34 608.11 225.4 600.74 217.49L601.64 208.35L614.92 204.46Z" fill="#F886BC"/>
<path d="M603.31 190.55C603.31 190.55 594.3 202.96 597.98 207.61C600.7 211.04 607.82 211.43 610.02 210.08C610.49 207.54 616.33 199.14 615.4 197.27C611.82 190.14 603.31 190.55 603.31 190.55Z" fill="#F886BC"/>
<path d="M617.34 192.7C617.05 188.01 612.42 186.64 603.54 187.17C602.35 187.24 600.24 186.43 599.69 187.49C598.97 188.88 598.84 191.69 600.23 192.95C601.16 193.79 601.78 193.98 603.01 194.26C604.62 194.64 606.26 196.17 605.4 197.85C605.18 198.29 604.64 199.04 604.98 199.4C605.15 199.58 605.72 199.79 605.94 199.91C606.58 200.25 606.54 201.22 606.14 201.83C605.74 202.44 605.92 203.11 605.52 203.71C604.57 205.14 605.7 207.78 607.17 208.65C608.48 209.42 612.76 210.72 615.9 209.09C618.62 207.68 620.25 203.84 620.28 196.94C620.29 194.3 618.33 192.52 617.34 192.7Z" fill="#212237"/>
<path d="M604.29 199.79C605.75 197.94 606.94 198.23 607.58 199.25C608.44 200.61 606.71 203.43 605.91 203.91C604.28 204.89 602.96 204.78 602.83 203.46" fill="#F886BC"/>
<path d="M600.68 196.95C600.26 197.3 599.87 197.93 600.1 198.4C600.17 198.53 600.29 198.59 600.44 198.58C601.38 198.48 601.56 196.22 600.68 196.95Z" fill="#28364C"/>
<path d="M600.8 195.23C601.39 195.44 602.34 195.97 602.68 196.71" stroke="#28364C" stroke-width="0.75" stroke-miterlimit="10"/>
<path d="M600.78 203.56L598.72 202.46C598.72 202.46 597.37 204.99 598.33 205.52C599.39 206.12 600.78 203.56 600.78 203.56Z" fill="white"/>
<path d="M569.737 460.102L602.247 460.077L602.246 458.617L569.736 458.642L569.737 460.102Z" fill="#103BB2"/>
<path d="M597.63 446.62L600.44 447.28C600.44 447.28 601.52 450.95 601.93 453.51C602.34 456.07 602.25 458.62 602.25 458.62L569.74 458.64C569.74 458.64 570.59 455.82 578.35 451.28C581.41 449.49 582.96 447.44 582.96 447.44L597.63 446.62Z" fill="#22252D"/>
<path d="M600.97 434.92L600.44 447.28C600.44 447.28 599.08 448.93 593.56 448.93C588.04 448.93 582.97 447.44 582.97 447.44L581.88 430.77" fill="#F2B18F"/>
<path d="M616.037 460.102L648.547 460.077L648.546 458.617L616.036 458.642L616.037 460.102Z" fill="#103BB2"/>
<path d="M643.93 446.62L646.74 447.28C646.74 447.28 647.82 450.95 648.23 453.51C648.64 456.07 648.55 458.62 648.55 458.62L616.04 458.64C616.04 458.64 616.89 455.82 624.65 451.28C627.71 449.49 629.26 447.44 629.26 447.44L643.93 446.62Z" fill="#22252D"/>
<path d="M645.64 434.42L646.74 447.28C646.74 447.28 645.38 448.93 639.86 448.93C634.34 448.93 629.27 447.44 629.27 447.44L626.77 430.77" fill="#F2B18F"/>
<path d="M640.4 306.52C640.4 306.52 645.47 317.08 641.4 337.28C643.47 382.38 648.87 443.02 648.87 443.02L617.9 442.91C617.9 442.91 611.59 377.73 607.83 345.25C603.65 309.07 601.03 264.76 601.03 264.76" fill="#0070E4"/>
<path d="M622.89 442.92C622.89 442.92 616.58 377.74 612.82 345.26" stroke="#0B2E6B" stroke-width="0.75" stroke-miterlimit="10"/>
<path d="M581.26 308.54C581.26 308.54 577.97 356.09 577.97 378.91C577.97 401.73 576.5 443.02 576.5 443.02H607.8L619.45 335.09C628.99 323.66 628.29 298.87 625.99 289.22L594.95 280.74L581.26 308.54Z" fill="#0070E4"/>
<path d="M613.06 394.36L619.46 335.09C627.46 326.17 627.46 314.91 627.46 314.91" stroke="#0B2E6B" stroke-width="0.75" stroke-miterlimit="10"/>
<path d="M587.79 303.77L580.39 443.03" stroke="#0B2E6B" stroke-width="0.75" stroke-miterlimit="10"/>
<path d="M608.35 316.32L623.56 316.62" stroke="#0B2E6B" stroke-width="0.75" stroke-miterlimit="10"/>
<path d="M634.4 315.84L640.18 315.72" stroke="#0B2E6B" stroke-width="0.75" stroke-miterlimit="10"/>
<path d="M554.87 236.11C550.63 231.31 539.24 213.05 537.96 213.34C536.68 213.63 540.13 219.28 539.03 219.32C537.94 219.36 532.04 211.03 530.84 211.65C529.21 212.5 535.7 220.72 535.7 220.72C535.7 220.72 533.16 217.23 531.96 218.38C531.11 219.19 531.56 220.9 533.32 223.79C532.14 222.31 531.02 222.05 530.16 222.92C529.3 223.78 530.15 225.35 531.21 226.94C530.38 225.9 529.16 225.37 528.85 226.46C528.44 227.88 531.89 235.25 540.04 247.27" fill="#F886BC"/>
<path d="M616.28 216.93C616.28 216.93 634.22 217.68 639.6 238.1C642.03 247.3 643.59 310.42 643.59 310.42L578.05 309.98C578.05 309.98 578.92 252.92 580.39 240.56C583.07 217.98 600.85 216.57 600.85 216.57C600.85 216.57 601.66 218.57 608.61 218.57C615.56 218.57 616.28 216.93 616.28 216.93Z" fill="#D8CAC0"/>
<path d="M616.28 216.93C637.57 216.93 650.68 246.17 650.68 246.17L637.29 252.89" fill="#D8CAC0"/>
<path d="M588.15 258.42C588.15 258.42 576.79 274.77 567.62 275.66C555.29 276.85 533.36 235.81 533.36 235.81L547.2 226.46L566.15 250.29L572.61 240.63" fill="#F886BC"/>
<path d="M600.83 216.58C582.5 217.59 569.08 244.89 569.08 244.89L590.54 260.3L602.72 244.41" fill="#D8CAC0"/>
<path d="M589.79 259.76L600.18 246.25" stroke="#846A6A" stroke-width="0.75" stroke-miterlimit="10"/>
<path d="M641.4 250.84C640.21 242.25 637.29 234.92 637.29 234.92" stroke="#846A6A" stroke-width="0.75" stroke-miterlimit="10"/>
<path d="M599.91 197.99C599.91 197.99 596.96 199.41 597.11 199.95C597.26 200.49 598.14 201.8 598.14 201.8" fill="#F886BC"/>
<path d="M576.5 436.24H608.35" stroke="#0B2E6B" stroke-width="0.75" stroke-miterlimit="10"/>
<path d="M617.24 436.51H648.22" stroke="#0B2E6B" stroke-width="0.75" stroke-miterlimit="10"/>
</g>
<defs>
<clipPath id="clip0_133_203">
<rect width="750" height="500" fill="white"/>
</clipPath>
</defs>
</svg>
